<?xml version="1.0" encoding="UTF-8" standalone="no"?>
<svg
   xmlns:dc="http://purl.org/dc/elements/1.1/"
   xmlns:cc="http://creativecommons.org/ns#"
   xmlns:rdf="http://www.w3.org/1999/02/22-rdf-syntax-ns#"
   xmlns:svg="http://www.w3.org/2000/svg"
   xmlns="http://www.w3.org/2000/svg"
   xmlns:sodipodi="http://sodipodi.sourceforge.net/DTD/sodipodi-0.dtd"
   xmlns:inkscape="http://www.inkscape.org/namespaces/inkscape"
   version="1.1"
   id="Layer_1"
   x="0px"
   y="0px"
   viewBox="0 0 326.87137 285.77826"
   enable-background="new 0 0 1946 1705.2141"
   xml:space="preserve"
   sodipodi:docname="octopus.svg"
   inkscape:version="0.92.4 (5da689c313, 2019-01-14)"
   width="326.87137"
   height="285.77826"><metadata
   id="metadata23"><rdf:RDF><cc:Work
       rdf:about=""><dc:format>image/svg+xml</dc:format><dc:type
         rdf:resource="http://purl.org/dc/dcmitype/StillImage" /></cc:Work></rdf:RDF></metadata><defs
   id="defs21" /><sodipodi:namedview
   pagecolor="#ffffff"
   bordercolor="#666666"
   borderopacity="1"
   objecttolerance="10"
   gridtolerance="10"
   guidetolerance="10"
   inkscape:pageopacity="0"
   inkscape:pageshadow="2"
   inkscape:window-width="1920"
   inkscape:window-height="1001"
   id="namedview19"
   showgrid="false"
   inkscape:zoom="0.55359616"
   inkscape:cx="372.79025"
   inkscape:cy="-218.17411"
   inkscape:window-x="-9"
   inkscape:window-y="-9"
   inkscape:window-maximized="1"
   inkscape:current-layer="Layer_1" />
<g
   id="g16"
   transform="matrix(0.17861141,0,0,0.17861141,-10.353222,-9.3962302)">
	<path
   d="m 906.4456,89.3981 c 201.0077,-104.258 412.7543,30.0585 470.6719,190.6148 62.9608,174.5369 -6.3352,332.0576 -128.3406,459.4916 -11.0138,11.5037 -20.114,24.7964 -26.3235,39.462 -51.7435,122.2065 135.5568,193.6363 172.2593,153.5354 107.4873,-117.4399 233.7885,-300.0335 338.7077,-272.7258 107.0376,27.8591 161.2894,92.3749 153.9581,148.093 -4.9791,60.7704 -53.0498,97.573 -112.9026,49.8531 -34.9395,-27.8568 -69.7539,-60.9485 -96.7737,-27.8591 -101.1725,123.8996 -182.5503,252.198 -304.9836,272.7257 -64.0801,10.3138 -121.0568,-4.3906 -174.3345,-32.1241 -8.6268,-4.4907 -17.7826,4.8591 -13.0525,13.3572 131.5625,236.3662 130.3396,421.9041 -60.4122,534.8932 -142.228,71.847 -177.4183,-79.9116 -115.8351,-115.8352 157.1691,-91.682 113.0027,-201.364 -6.4799,-403.3151 -3.6139,-6.1083 -12.9305,-3.7119 -13.1823,3.381 -11.9108,335.5741 -171.0087,535.8892 -387.9601,549.4934 -86.8468,5.4458 -107.7707,-123.1665 -45.4543,-156.8906 182.3632,-98.6907 287.382,-88.7098 270.8848,-463.161 -0.5987,-13.5891 -15.3946,-21.7315 -27.1987,-14.9725 -93.001,53.2518 -193.4701,84.9271 -303.8031,88.1064 -108.1587,8.3197 -169.4785,50.342 -150.2924,150.2924 16.8621,61.5833 120.2339,112.9026 65.2489,186.9491 -43.988,42.033 -105.2579,53.9321 -149.5593,0 -118.0345,-143.6942 -123.8996,-286.6553 16.1289,-436.9477 78.7263,-84.4969 367.763,-53.7574 431.2761,-121.1733 7.2851,-7.7328 -0.3257,-20.1495 -10.628,-17.5549 C 518.941,912.1992 450.0998,826.9684 347.7977,781.4764 291.4563,756.4224 245.358,785.7627 239.2939,831.3295 240.4312,932.7162 182.0888,994.1307 107.3298,926.6369 27.2325,854.3234 53.3225,741.3641 123.4588,670.04 224.8417,566.9403 336.8829,600.2063 476.8293,681.7702 596.3301,751.4179 751.0213,716.2275 739.2912,627.5183 720.3464,484.2487 746.1564,172.5364 906.4456,89.3981 Z"
   id="path2"
   inkscape:connector-curvature="0" />
	<g
   id="g6">
		<path
   d="m 987.0703,495.0731 c -12.9601,0 -24.8177,-8.6587 -28.3159,-21.7764 -13.6818,-51.3122 -27.6844,-56.2193 -27.8176,-56.2365 -7.6492,-1.0109 -28.9201,20.3173 -40.5629,40.7262 -8.0229,14.067 -25.9346,18.9698 -40.0016,10.9426 -14.0684,-8.0244 -18.9684,-25.9346 -10.9426,-40.0016 7.3314,-12.8542 46.5583,-76.6354 99.0461,-69.831 52.2802,6.7758 70.8491,76.4063 76.949,99.2881 4.1726,15.6493 -5.129,31.7181 -20.7797,35.8906 -2.5288,0.6758 -5.0719,0.998 -7.5748,0.998 z"
   id="path4"
   inkscape:connector-curvature="0"
   style="fill:#ffffff" />
	</g>
	<g
   id="g10">
		<path
   d="m 1224.5941,595.7501 c -15.244,0 -28.1168,-11.7932 -29.2194,-27.2376 -4.2471,-59.4468 -17.8931,-68.6196 -18.0305,-68.6855 -6.2632,-1.104 -26.9141,13.2938 -41.2445,31.141 -10.1293,12.6065 -28.5721,14.6641 -41.1958,4.5735 -12.6294,-10.0949 -14.7314,-28.4791 -4.668,-41.1342 8.8405,-11.113 55.4288,-65.7802 104.5316,-50.5776 51.6429,15.9901 57.2617,94.6544 59.1089,120.5046 1.1542,16.1547 -11.0055,30.1859 -27.1603,31.34 -0.713,0.05 -1.4203,0.0758 -2.122,0.0758 z"
   id="path8"
   inkscape:connector-curvature="0"
   style="fill:#ffffff" />
	</g>
	<g
   id="g14">
		<path
   d="m 1021.602,724.4637 c -19.1589,0 -37.1808,-3.627 -53.9684,-10.8868 -49.0426,-21.2122 -67.4712,-65.0098 -69.4114,-69.9341 -9.7383,-31.1539 37.1822,-57.5467 54.5698,-21.4957 l -0.1088,-0.2706 c 0.0759,0.1833 7.8297,18.3699 26.0993,31.0966 23.6894,16.5013 55.3917,17.0296 94.2277,1.5536 15.0493,-5.9911 32.1033,1.3445 38.0972,16.391 5.9939,15.045 -1.3431,32.1018 -16.3895,38.0957 -25.8489,10.2969 -50.2856,15.4503 -73.1159,15.4503 z"
   id="path12"
   inkscape:connector-curvature="0"
   style="fill:#ffffff" />
	</g>
</g>
</svg>